<svg width="10" height="10" viewBox="0 0 10 10" fill="none" xmlns="http://www.w3.org/2000/svg">
<g clip-path="url(#clip0_723_2)">
<path d="M8.6525 0H1.34764C0.603442 0 0.00012207 0.603296 0.00012207 1.34752V8.65243C0.00012207 9.39665 0.603418 9.99995 1.34764 9.99995H4.95036L4.9565 6.42651H4.02813C3.90748 6.42651 3.80955 6.32895 3.80909 6.2083L3.80464 5.05643C3.80417 4.93513 3.90239 4.83654 4.0237 4.83654H4.95039V3.72354C4.95039 2.43192 5.73923 1.72862 6.89144 1.72862H7.83692C7.95789 1.72862 8.05598 1.82669 8.05598 1.94768V2.91895C8.05598 3.03989 7.95796 3.13793 7.83704 3.13801L7.25682 3.13828C6.63021 3.13828 6.50887 3.43604 6.50887 3.87301V4.83657H7.88575C8.01694 4.83657 8.11873 4.95112 8.10327 5.08141L7.96674 6.23328C7.95368 6.34351 7.86021 6.42656 7.74922 6.42656H6.51501L6.50887 10H8.65255C9.39675 10 10 9.3967 10 8.6525V1.34752C10 0.603296 9.39673 0 8.6525 0Z" fill="#475993"/>
</g>
<defs>
<clipPath id="clip0_723_2">
<rect width="10" height="10" fill="white"/>
</clipPath>
</defs>
</svg>
